<mxfile host="www.draw.io" modified="2020-02-24T12:11:05.453Z" agent="Mozilla/5.0 (Windows NT 10.0; Win64; x64) AppleWebKit/537.36 (KHTML, like Gecko) Chrome/79.0.3945.130 Safari/537.36" etag="loa2pj5eNdwFnm5OxRme" version="12.7.4" type="github">
  <diagram id="gLudkZKbPFSRH6nemy1E" name="Page-1">
    <mxGraphModel dx="868" dy="482" grid="1" gridSize="10" guides="1" tooltips="1" connect="1" arrows="1" fold="1" page="1" pageScale="1" pageWidth="2339" pageHeight="3300" math="0" shadow="0">
      <root>
        <mxCell id="0" />
        <mxCell id="1" parent="0" />
        <mxCell id="uwCQygGZfcRBNVv9s5Vt-1" value="&lt;font style=&quot;font-size: 14px&quot; face=&quot;Courier New&quot;&gt;&lt;b&gt;Gestionale Laboratorio Chimica ITIS E. Fermi&lt;/b&gt;&lt;/font&gt;" style="rounded=0;whiteSpace=wrap;html=1;fontSize=16;fillColor=#fff2cc;strokeColor=#d6b656;" parent="1" vertex="1">
          <mxGeometry x="800" y="20" width="440" height="60" as="geometry" />
        </mxCell>
        <mxCell id="uwCQygGZfcRBNVv9s5Vt-8" value="" style="endArrow=none;html=1;entryX=0.5;entryY=1;entryDx=0;entryDy=0;" parent="1" target="uwCQygGZfcRBNVv9s5Vt-1" edge="1">
          <mxGeometry width="50" height="50" relative="1" as="geometry">
            <mxPoint x="320" y="120" as="sourcePoint" />
            <mxPoint x="230" y="120" as="targetPoint" />
            <Array as="points">
              <mxPoint x="1020" y="120" />
            </Array>
          </mxGeometry>
        </mxCell>
        <mxCell id="uwCQygGZfcRBNVv9s5Vt-22" value="&lt;div&gt;&lt;font face=&quot;Courier New&quot;&gt;&lt;b&gt;1) Analisi del progetto&lt;/b&gt;&lt;/font&gt;&lt;/div&gt;" style="rounded=1;whiteSpace=wrap;html=1;fillColor=#dae8fc;strokeColor=#6c8ebf;" parent="1" vertex="1">
          <mxGeometry x="160" y="160" width="120" height="60" as="geometry" />
        </mxCell>
        <mxCell id="uwCQygGZfcRBNVv9s5Vt-23" value="" style="endArrow=none;html=1;entryX=0.5;entryY=0;entryDx=0;entryDy=0;" parent="1" target="uwCQygGZfcRBNVv9s5Vt-22" edge="1">
          <mxGeometry width="50" height="50" relative="1" as="geometry">
            <mxPoint x="320" y="120" as="sourcePoint" />
            <mxPoint x="50" y="240" as="targetPoint" />
            <Array as="points">
              <mxPoint x="220" y="120" />
            </Array>
          </mxGeometry>
        </mxCell>
        <mxCell id="uwCQygGZfcRBNVv9s5Vt-25" value="&lt;div&gt;&lt;font face=&quot;Courier New&quot;&gt;1.1) &lt;br&gt;&lt;/font&gt;&lt;/div&gt;&lt;div&gt;&lt;font face=&quot;Courier New&quot;&gt;Studio di fattibilità&lt;/font&gt;&lt;/div&gt;" style="rounded=1;whiteSpace=wrap;html=1;" parent="1" vertex="1">
          <mxGeometry y="250" width="100" height="50" as="geometry" />
        </mxCell>
        <mxCell id="uwCQygGZfcRBNVv9s5Vt-27" value="&lt;div&gt;&lt;font face=&quot;Courier New&quot;&gt;1.1.1) Analisi dei requisiti&lt;/font&gt;&lt;/div&gt;" style="rounded=1;whiteSpace=wrap;html=1;" parent="1" vertex="1">
          <mxGeometry x="60" y="320" width="100" height="50" as="geometry" />
        </mxCell>
        <mxCell id="uwCQygGZfcRBNVv9s5Vt-29" value="&lt;font face=&quot;Courier New&quot;&gt;1.1.2) Requisiti funzionali&lt;/font&gt;" style="rounded=1;whiteSpace=wrap;html=1;" parent="1" vertex="1">
          <mxGeometry x="60" y="380" width="100" height="50" as="geometry" />
        </mxCell>
        <mxCell id="uwCQygGZfcRBNVv9s5Vt-34" value="" style="endArrow=none;html=1;entryX=0.5;entryY=1;entryDx=0;entryDy=0;exitX=0.5;exitY=0;exitDx=0;exitDy=0;" parent="1" source="uwCQygGZfcRBNVv9s5Vt-29" target="uwCQygGZfcRBNVv9s5Vt-27" edge="1">
          <mxGeometry width="50" height="50" relative="1" as="geometry">
            <mxPoint y="530" as="sourcePoint" />
            <mxPoint x="50" y="480" as="targetPoint" />
          </mxGeometry>
        </mxCell>
        <mxCell id="uwCQygGZfcRBNVv9s5Vt-36" value="&lt;font face=&quot;Courier New&quot;&gt;1.1.3) Requisiti non funzionali&lt;/font&gt;" style="rounded=1;whiteSpace=wrap;html=1;" parent="1" vertex="1">
          <mxGeometry x="60" y="440" width="100" height="50" as="geometry" />
        </mxCell>
        <mxCell id="uwCQygGZfcRBNVv9s5Vt-37" value="" style="endArrow=none;html=1;entryX=0.5;entryY=1;entryDx=0;entryDy=0;exitX=0.5;exitY=0;exitDx=0;exitDy=0;" parent="1" source="uwCQygGZfcRBNVv9s5Vt-36" target="uwCQygGZfcRBNVv9s5Vt-29" edge="1">
          <mxGeometry width="50" height="50" relative="1" as="geometry">
            <mxPoint y="560" as="sourcePoint" />
            <mxPoint x="50" y="510" as="targetPoint" />
          </mxGeometry>
        </mxCell>
        <mxCell id="uwCQygGZfcRBNVv9s5Vt-38" value="&lt;div&gt;&lt;font face=&quot;Courier New&quot;&gt;1.1.4)&lt;/font&gt;&lt;/div&gt;&lt;div&gt;&lt;font face=&quot;Courier New&quot;&gt;Split tree&lt;/font&gt;&lt;/div&gt;" style="rounded=1;whiteSpace=wrap;html=1;" parent="1" vertex="1">
          <mxGeometry x="60" y="500" width="100" height="30" as="geometry" />
        </mxCell>
        <mxCell id="uwCQygGZfcRBNVv9s5Vt-39" value="" style="endArrow=none;html=1;entryX=0.5;entryY=1;entryDx=0;entryDy=0;exitX=0.5;exitY=0;exitDx=0;exitDy=0;" parent="1" source="uwCQygGZfcRBNVv9s5Vt-38" target="uwCQygGZfcRBNVv9s5Vt-36" edge="1">
          <mxGeometry width="50" height="50" relative="1" as="geometry">
            <mxPoint x="-10" y="600" as="sourcePoint" />
            <mxPoint x="40" y="550" as="targetPoint" />
          </mxGeometry>
        </mxCell>
        <mxCell id="uwCQygGZfcRBNVv9s5Vt-40" value="&lt;div&gt;&lt;font face=&quot;Courier New&quot;&gt;1.1.5)&lt;/font&gt;&lt;/div&gt;&lt;div&gt;&lt;font face=&quot;Courier New&quot;&gt;Analisi attività&lt;/font&gt;&lt;/div&gt;" style="rounded=1;whiteSpace=wrap;html=1;" parent="1" vertex="1">
          <mxGeometry x="60" y="540" width="100" height="50" as="geometry" />
        </mxCell>
        <mxCell id="uwCQygGZfcRBNVv9s5Vt-43" value="" style="endArrow=none;html=1;entryX=0.5;entryY=1;entryDx=0;entryDy=0;exitX=0.5;exitY=0;exitDx=0;exitDy=0;" parent="1" source="uwCQygGZfcRBNVv9s5Vt-40" target="uwCQygGZfcRBNVv9s5Vt-38" edge="1">
          <mxGeometry width="50" height="50" relative="1" as="geometry">
            <mxPoint x="110" y="540" as="sourcePoint" />
            <mxPoint x="40" y="630" as="targetPoint" />
          </mxGeometry>
        </mxCell>
        <mxCell id="uwCQygGZfcRBNVv9s5Vt-47" value="&lt;div&gt;&lt;font face=&quot;Courier New&quot;&gt;1.2) &lt;br&gt;&lt;/font&gt;&lt;/div&gt;&lt;div&gt;&lt;font face=&quot;Courier New&quot;&gt;Piano di progetto&lt;/font&gt;&lt;/div&gt;" style="rounded=1;whiteSpace=wrap;html=1;" parent="1" vertex="1">
          <mxGeometry x="170" y="250" width="100" height="50" as="geometry" />
        </mxCell>
        <mxCell id="uwCQygGZfcRBNVv9s5Vt-53" value="&lt;div&gt;&lt;font face=&quot;Courier New&quot;&gt;1.2.1) &lt;br&gt;&lt;/font&gt;&lt;/div&gt;&lt;div&gt;&lt;font face=&quot;Courier New&quot;&gt;WBS&lt;/font&gt;&lt;/div&gt;" style="rounded=1;whiteSpace=wrap;html=1;" parent="1" vertex="1">
          <mxGeometry x="230" y="320" width="100" height="40" as="geometry" />
        </mxCell>
        <mxCell id="uwCQygGZfcRBNVv9s5Vt-57" value="&lt;font face=&quot;Courier New&quot;&gt;1.2.2) Pianificazione Temporale (Gantt)&lt;/font&gt;" style="rounded=1;whiteSpace=wrap;html=1;" parent="1" vertex="1">
          <mxGeometry x="230" y="370" width="100" height="70" as="geometry" />
        </mxCell>
        <mxCell id="uwCQygGZfcRBNVv9s5Vt-58" value="&lt;font face=&quot;Courier New&quot;&gt;1.2.3) Analisi tecnologie utilizzate&lt;/font&gt;" style="rounded=1;whiteSpace=wrap;html=1;" parent="1" vertex="1">
          <mxGeometry x="230" y="450" width="100" height="60" as="geometry" />
        </mxCell>
        <mxCell id="uwCQygGZfcRBNVv9s5Vt-61" value="" style="endArrow=none;html=1;entryX=0.5;entryY=1;entryDx=0;entryDy=0;exitX=0.5;exitY=0;exitDx=0;exitDy=0;" parent="1" source="uwCQygGZfcRBNVv9s5Vt-57" target="uwCQygGZfcRBNVv9s5Vt-53" edge="1">
          <mxGeometry width="50" height="50" relative="1" as="geometry">
            <mxPoint x="-10" y="650" as="sourcePoint" />
            <mxPoint x="40" y="600" as="targetPoint" />
          </mxGeometry>
        </mxCell>
        <mxCell id="uwCQygGZfcRBNVv9s5Vt-62" value="" style="endArrow=none;html=1;entryX=0.5;entryY=1;entryDx=0;entryDy=0;exitX=0.5;exitY=0;exitDx=0;exitDy=0;" parent="1" source="uwCQygGZfcRBNVv9s5Vt-58" target="uwCQygGZfcRBNVv9s5Vt-57" edge="1">
          <mxGeometry width="50" height="50" relative="1" as="geometry">
            <mxPoint x="280" y="470" as="sourcePoint" />
            <mxPoint x="290" y="390" as="targetPoint" />
          </mxGeometry>
        </mxCell>
        <mxCell id="aqoGc1DX-6544hBjVU6M-3" value="&lt;div&gt;&lt;font face=&quot;Courier New&quot;&gt;1.3) Individuazione Obiettivi&lt;br&gt;&lt;/font&gt;&lt;/div&gt;" style="rounded=1;whiteSpace=wrap;html=1;" parent="1" vertex="1">
          <mxGeometry x="340" y="250" width="100" height="50" as="geometry" />
        </mxCell>
        <mxCell id="aqoGc1DX-6544hBjVU6M-4" value="" style="endArrow=none;html=1;entryX=0.5;entryY=0;entryDx=0;entryDy=0;exitX=0.5;exitY=0;exitDx=0;exitDy=0;" parent="1" source="uwCQygGZfcRBNVv9s5Vt-25" target="aqoGc1DX-6544hBjVU6M-3" edge="1">
          <mxGeometry width="50" height="50" relative="1" as="geometry">
            <mxPoint x="190" y="230" as="sourcePoint" />
            <mxPoint x="40" y="590" as="targetPoint" />
            <Array as="points">
              <mxPoint x="50" y="230" />
              <mxPoint x="390" y="230" />
            </Array>
          </mxGeometry>
        </mxCell>
        <mxCell id="aqoGc1DX-6544hBjVU6M-7" value="&lt;font face=&quot;Courier New&quot;&gt;1.3.1) &lt;br&gt;Individuazione iniziale obiettivi &lt;/font&gt;" style="rounded=1;whiteSpace=wrap;html=1;" parent="1" vertex="1">
          <mxGeometry x="400" y="320" width="100" height="70" as="geometry" />
        </mxCell>
        <mxCell id="aqoGc1DX-6544hBjVU6M-11" value="&lt;div&gt;&lt;font face=&quot;Courier New&quot;&gt;1.3.2) Approvazione obiettivi &lt;br&gt;&lt;/font&gt;&lt;/div&gt;" style="rounded=1;whiteSpace=wrap;html=1;" parent="1" vertex="1">
          <mxGeometry x="400" y="400" width="100" height="50" as="geometry" />
        </mxCell>
        <mxCell id="aqoGc1DX-6544hBjVU6M-12" value="" style="endArrow=none;html=1;entryX=0.5;entryY=1;entryDx=0;entryDy=0;exitX=0.5;exitY=0;exitDx=0;exitDy=0;" parent="1" source="aqoGc1DX-6544hBjVU6M-11" target="aqoGc1DX-6544hBjVU6M-7" edge="1">
          <mxGeometry width="50" height="50" relative="1" as="geometry">
            <mxPoint x="-10" y="650" as="sourcePoint" />
            <mxPoint x="40" y="600" as="targetPoint" />
          </mxGeometry>
        </mxCell>
        <mxCell id="aqoGc1DX-6544hBjVU6M-13" value="" style="endArrow=none;html=1;entryX=0.5;entryY=1;entryDx=0;entryDy=0;" parent="1" target="uwCQygGZfcRBNVv9s5Vt-22" edge="1">
          <mxGeometry width="50" height="50" relative="1" as="geometry">
            <mxPoint x="220" y="230" as="sourcePoint" />
            <mxPoint x="50" y="590" as="targetPoint" />
          </mxGeometry>
        </mxCell>
        <mxCell id="aqoGc1DX-6544hBjVU6M-14" value="" style="endArrow=none;html=1;exitX=0.5;exitY=0;exitDx=0;exitDy=0;" parent="1" source="uwCQygGZfcRBNVv9s5Vt-47" edge="1">
          <mxGeometry width="50" height="50" relative="1" as="geometry">
            <mxPoint y="640" as="sourcePoint" />
            <mxPoint x="220" y="230" as="targetPoint" />
          </mxGeometry>
        </mxCell>
        <mxCell id="aqoGc1DX-6544hBjVU6M-15" value="&lt;div&gt;&lt;font face=&quot;Courier New&quot;&gt;&lt;b&gt;2) Design&lt;br&gt;&lt;/b&gt;&lt;/font&gt;&lt;/div&gt;" style="rounded=1;whiteSpace=wrap;html=1;fillColor=#dae8fc;strokeColor=#6c8ebf;" parent="1" vertex="1">
          <mxGeometry x="590" y="160" width="120" height="60" as="geometry" />
        </mxCell>
        <mxCell id="aqoGc1DX-6544hBjVU6M-16" value="&lt;div&gt;&lt;font face=&quot;Courier New&quot;&gt;&lt;b&gt;3) Testing&lt;/b&gt;&lt;/font&gt;&lt;/div&gt;" style="rounded=1;whiteSpace=wrap;html=1;fillColor=#dae8fc;strokeColor=#6c8ebf;" parent="1" vertex="1">
          <mxGeometry x="1540" y="150" width="120" height="60" as="geometry" />
        </mxCell>
        <mxCell id="aqoGc1DX-6544hBjVU6M-17" value="&lt;div&gt;&lt;font face=&quot;Courier New&quot;&gt;&lt;b&gt;4) Rilascio&lt;/b&gt;&lt;/font&gt;&lt;/div&gt;" style="rounded=1;whiteSpace=wrap;html=1;fillColor=#dae8fc;strokeColor=#6c8ebf;" parent="1" vertex="1">
          <mxGeometry x="1990" y="150" width="120" height="60" as="geometry" />
        </mxCell>
        <mxCell id="aqoGc1DX-6544hBjVU6M-19" value="&lt;div&gt;&lt;font face=&quot;Courier New&quot;&gt;2.1)&lt;/font&gt;&lt;/div&gt;&lt;div&gt;&lt;font face=&quot;Courier New&quot;&gt;Design delle funzioni&lt;br&gt;&lt;/font&gt;&lt;/div&gt;" style="rounded=1;whiteSpace=wrap;html=1;" parent="1" vertex="1">
          <mxGeometry x="540" y="250" width="110" height="50" as="geometry" />
        </mxCell>
        <mxCell id="aqoGc1DX-6544hBjVU6M-20" value="&lt;div&gt;&lt;font face=&quot;Courier New&quot;&gt;2.2) &lt;br&gt;&lt;/font&gt;&lt;/div&gt;&lt;div&gt;&lt;font face=&quot;Courier New&quot;&gt;Design&lt;/font&gt;&lt;/div&gt;&lt;div&gt;&lt;font face=&quot;Courier New&quot;&gt; dell&#39;interfaccia&lt;br&gt;&lt;/font&gt;&lt;/div&gt;" style="rounded=1;whiteSpace=wrap;html=1;" parent="1" vertex="1">
          <mxGeometry x="660" y="250" width="120" height="50" as="geometry" />
        </mxCell>
        <mxCell id="aqoGc1DX-6544hBjVU6M-21" value="" style="endArrow=none;html=1;exitX=0.5;exitY=0;exitDx=0;exitDy=0;" parent="1" source="aqoGc1DX-6544hBjVU6M-20" edge="1">
          <mxGeometry width="50" height="50" relative="1" as="geometry">
            <mxPoint x="640" y="570" as="sourcePoint" />
            <mxPoint x="650" y="220" as="targetPoint" />
            <Array as="points">
              <mxPoint x="720" y="230" />
              <mxPoint x="650" y="230" />
            </Array>
          </mxGeometry>
        </mxCell>
        <mxCell id="aqoGc1DX-6544hBjVU6M-22" value="" style="endArrow=none;html=1;exitX=0.5;exitY=0;exitDx=0;exitDy=0;" parent="1" source="aqoGc1DX-6544hBjVU6M-19" edge="1">
          <mxGeometry width="50" height="50" relative="1" as="geometry">
            <mxPoint x="580" y="480" as="sourcePoint" />
            <mxPoint x="650" y="220" as="targetPoint" />
            <Array as="points">
              <mxPoint x="595" y="230" />
              <mxPoint x="650" y="230" />
            </Array>
          </mxGeometry>
        </mxCell>
        <mxCell id="aqoGc1DX-6544hBjVU6M-24" value="&lt;div&gt;&lt;font face=&quot;Courier New&quot;&gt;3.3) &lt;br&gt;&lt;/font&gt;&lt;/div&gt;&lt;div&gt;&lt;font face=&quot;Courier New&quot;&gt;Analisi risultati dei test&lt;/font&gt;&lt;/div&gt;" style="rounded=1;whiteSpace=wrap;html=1;" parent="1" vertex="1">
          <mxGeometry x="1670" y="250" width="120" height="60" as="geometry" />
        </mxCell>
        <mxCell id="aqoGc1DX-6544hBjVU6M-25" value="&lt;div&gt;&lt;font face=&quot;Courier New&quot;&gt;3.1) &lt;br&gt;&lt;/font&gt;&lt;/div&gt;&lt;div&gt;&lt;font face=&quot;Courier New&quot;&gt;Testing interno&lt;br&gt;&lt;/font&gt;&lt;/div&gt;" style="rounded=1;whiteSpace=wrap;html=1;" parent="1" vertex="1">
          <mxGeometry x="1410" y="250" width="120" height="50" as="geometry" />
        </mxCell>
        <mxCell id="aqoGc1DX-6544hBjVU6M-27" value="&lt;div&gt;&lt;font face=&quot;Courier New&quot;&gt;3.2) &lt;br&gt;&lt;/font&gt;&lt;/div&gt;&lt;div&gt;&lt;font face=&quot;Courier New&quot;&gt;Test di integrazione&lt;/font&gt;&lt;/div&gt;" style="rounded=1;whiteSpace=wrap;html=1;" parent="1" vertex="1">
          <mxGeometry x="1540" y="250" width="120" height="50" as="geometry" />
        </mxCell>
        <mxCell id="aqoGc1DX-6544hBjVU6M-28" value="&lt;div&gt;&lt;font face=&quot;Courier New&quot;&gt;&lt;b&gt;3) Ricerca e Sviluppo&lt;/b&gt;&lt;/font&gt;&lt;/div&gt;" style="rounded=1;whiteSpace=wrap;html=1;fillColor=#dae8fc;strokeColor=#6c8ebf;" parent="1" vertex="1">
          <mxGeometry x="1090" y="160" width="120" height="60" as="geometry" />
        </mxCell>
        <mxCell id="aqoGc1DX-6544hBjVU6M-29" value="&lt;div&gt;&lt;font face=&quot;Courier New&quot;&gt;3.1) &lt;br&gt;&lt;/font&gt;&lt;/div&gt;&lt;div&gt;&lt;font face=&quot;Courier New&quot;&gt;Definizione moduli del progetto&lt;br&gt;&lt;/font&gt;&lt;/div&gt;" style="rounded=1;whiteSpace=wrap;html=1;" parent="1" vertex="1">
          <mxGeometry x="960" y="250" width="120" height="60" as="geometry" />
        </mxCell>
        <mxCell id="aqoGc1DX-6544hBjVU6M-30" value="&lt;div&gt;&lt;font face=&quot;Courier New&quot;&gt;3.3) &lt;br&gt;&lt;/font&gt;&lt;/div&gt;&lt;div&gt;&lt;font face=&quot;Courier New&quot;&gt;Sviluppo Frontend &lt;/font&gt;&lt;/div&gt;" style="rounded=1;whiteSpace=wrap;html=1;" parent="1" vertex="1">
          <mxGeometry x="1230" y="250" width="120" height="50" as="geometry" />
        </mxCell>
        <mxCell id="aqoGc1DX-6544hBjVU6M-33" value="&lt;div&gt;&lt;font face=&quot;Courier New&quot;&gt;3.2) &lt;br&gt;&lt;/font&gt;&lt;/div&gt;&lt;div&gt;&lt;font face=&quot;Courier New&quot;&gt;Sviluppo Backend &lt;/font&gt;&lt;/div&gt;" style="rounded=1;whiteSpace=wrap;html=1;" parent="1" vertex="1">
          <mxGeometry x="1090" y="250" width="120" height="50" as="geometry" />
        </mxCell>
        <mxCell id="aqoGc1DX-6544hBjVU6M-34" value="" style="endArrow=none;html=1;exitX=0.5;exitY=0;exitDx=0;exitDy=0;" parent="1" source="aqoGc1DX-6544hBjVU6M-29" edge="1">
          <mxGeometry width="50" height="50" relative="1" as="geometry">
            <mxPoint x="1100" y="530" as="sourcePoint" />
            <mxPoint x="1150" y="220" as="targetPoint" />
            <Array as="points">
              <mxPoint x="1020" y="230" />
              <mxPoint x="1150" y="230" />
            </Array>
          </mxGeometry>
        </mxCell>
        <mxCell id="aqoGc1DX-6544hBjVU6M-38" value="" style="endArrow=none;html=1;exitX=0.5;exitY=0;exitDx=0;exitDy=0;" parent="1" source="aqoGc1DX-6544hBjVU6M-33" edge="1">
          <mxGeometry width="50" height="50" relative="1" as="geometry">
            <mxPoint x="610" y="630" as="sourcePoint" />
            <mxPoint x="1150" y="220" as="targetPoint" />
          </mxGeometry>
        </mxCell>
        <mxCell id="aqoGc1DX-6544hBjVU6M-40" value="" style="endArrow=none;html=1;" parent="1" edge="1">
          <mxGeometry width="50" height="50" relative="1" as="geometry">
            <mxPoint x="1290" y="250" as="sourcePoint" />
            <mxPoint x="1150" y="220" as="targetPoint" />
            <Array as="points">
              <mxPoint x="1290" y="230" />
              <mxPoint x="1150" y="230" />
            </Array>
          </mxGeometry>
        </mxCell>
        <mxCell id="aqoGc1DX-6544hBjVU6M-41" value="" style="endArrow=none;html=1;entryX=0.5;entryY=1;entryDx=0;entryDy=0;exitX=0.5;exitY=0;exitDx=0;exitDy=0;" parent="1" source="aqoGc1DX-6544hBjVU6M-15" target="uwCQygGZfcRBNVv9s5Vt-1" edge="1">
          <mxGeometry width="50" height="50" relative="1" as="geometry">
            <mxPoint x="490" y="640" as="sourcePoint" />
            <mxPoint x="540" y="590" as="targetPoint" />
            <Array as="points">
              <mxPoint x="650" y="120" />
              <mxPoint x="1020" y="120" />
            </Array>
          </mxGeometry>
        </mxCell>
        <mxCell id="aqoGc1DX-6544hBjVU6M-42" value="" style="endArrow=none;html=1;entryX=0.5;entryY=1;entryDx=0;entryDy=0;exitX=0.5;exitY=0;exitDx=0;exitDy=0;" parent="1" source="aqoGc1DX-6544hBjVU6M-28" target="uwCQygGZfcRBNVv9s5Vt-1" edge="1">
          <mxGeometry width="50" height="50" relative="1" as="geometry">
            <mxPoint x="490" y="640" as="sourcePoint" />
            <mxPoint x="540" y="590" as="targetPoint" />
            <Array as="points">
              <mxPoint x="1150" y="120" />
              <mxPoint x="1020" y="120" />
            </Array>
          </mxGeometry>
        </mxCell>
        <mxCell id="aqoGc1DX-6544hBjVU6M-43" value="" style="endArrow=none;html=1;entryX=0.5;entryY=1;entryDx=0;entryDy=0;" parent="1" target="uwCQygGZfcRBNVv9s5Vt-1" edge="1">
          <mxGeometry width="50" height="50" relative="1" as="geometry">
            <mxPoint x="1600" y="150" as="sourcePoint" />
            <mxPoint x="540" y="660" as="targetPoint" />
            <Array as="points">
              <mxPoint x="1600" y="120" />
              <mxPoint x="1020" y="120" />
            </Array>
          </mxGeometry>
        </mxCell>
        <mxCell id="aqoGc1DX-6544hBjVU6M-44" value="" style="endArrow=none;html=1;exitX=0.5;exitY=0;exitDx=0;exitDy=0;" parent="1" source="aqoGc1DX-6544hBjVU6M-17" edge="1">
          <mxGeometry width="50" height="50" relative="1" as="geometry">
            <mxPoint x="980" y="640" as="sourcePoint" />
            <mxPoint x="1020" y="80" as="targetPoint" />
            <Array as="points">
              <mxPoint x="2050" y="120" />
              <mxPoint x="1020" y="120" />
            </Array>
          </mxGeometry>
        </mxCell>
        <mxCell id="aqoGc1DX-6544hBjVU6M-45" value="&lt;div&gt;&lt;font face=&quot;Courier New&quot;&gt;4.1)&lt;/font&gt;&lt;/div&gt;&lt;div&gt;&lt;font face=&quot;Courier New&quot;&gt;Installazione del Software&lt;br&gt;&lt;/font&gt;&lt;/div&gt;" style="rounded=1;whiteSpace=wrap;html=1;" parent="1" vertex="1">
          <mxGeometry x="1850" y="250" width="120" height="50" as="geometry" />
        </mxCell>
        <mxCell id="aqoGc1DX-6544hBjVU6M-46" value="&lt;font face=&quot;Courier New&quot;&gt;4.2) Integrazione nel sistema&lt;/font&gt;" style="rounded=1;whiteSpace=wrap;html=1;" parent="1" vertex="1">
          <mxGeometry x="1990" y="250" width="120" height="50" as="geometry" />
        </mxCell>
        <mxCell id="aqoGc1DX-6544hBjVU6M-47" value="&lt;div&gt;&lt;font face=&quot;Courier New&quot;&gt;4.3) &lt;br&gt;&lt;/font&gt;&lt;/div&gt;&lt;div&gt;&lt;font face=&quot;Courier New&quot;&gt;Training&lt;/font&gt;&lt;/div&gt;" style="rounded=1;whiteSpace=wrap;html=1;" parent="1" vertex="1">
          <mxGeometry x="2120" y="250" width="120" height="50" as="geometry" />
        </mxCell>
        <mxCell id="aqoGc1DX-6544hBjVU6M-48" value="" style="endArrow=none;html=1;exitX=0.5;exitY=0;exitDx=0;exitDy=0;" parent="1" source="aqoGc1DX-6544hBjVU6M-47" edge="1">
          <mxGeometry width="50" height="50" relative="1" as="geometry">
            <mxPoint x="1040" y="630" as="sourcePoint" />
            <mxPoint x="2050" y="210" as="targetPoint" />
            <Array as="points">
              <mxPoint x="2180" y="220" />
              <mxPoint x="2050" y="220" />
            </Array>
          </mxGeometry>
        </mxCell>
        <mxCell id="aqoGc1DX-6544hBjVU6M-49" value="" style="endArrow=none;html=1;exitX=0.5;exitY=0;exitDx=0;exitDy=0;" parent="1" source="aqoGc1DX-6544hBjVU6M-46" edge="1">
          <mxGeometry width="50" height="50" relative="1" as="geometry">
            <mxPoint x="1040" y="700" as="sourcePoint" />
            <mxPoint x="2050" y="210" as="targetPoint" />
          </mxGeometry>
        </mxCell>
        <mxCell id="aqoGc1DX-6544hBjVU6M-50" value="" style="endArrow=none;html=1;exitX=0.5;exitY=0;exitDx=0;exitDy=0;" parent="1" source="aqoGc1DX-6544hBjVU6M-45" edge="1">
          <mxGeometry width="50" height="50" relative="1" as="geometry">
            <mxPoint x="1040" y="770" as="sourcePoint" />
            <mxPoint x="2050" y="210" as="targetPoint" />
            <Array as="points">
              <mxPoint x="1910" y="220" />
              <mxPoint x="2050" y="220" />
            </Array>
          </mxGeometry>
        </mxCell>
        <mxCell id="aqoGc1DX-6544hBjVU6M-51" value="" style="endArrow=none;html=1;exitX=0.5;exitY=0;exitDx=0;exitDy=0;" parent="1" source="aqoGc1DX-6544hBjVU6M-24" edge="1">
          <mxGeometry width="50" height="50" relative="1" as="geometry">
            <mxPoint x="1040" y="840" as="sourcePoint" />
            <mxPoint x="1600" y="210" as="targetPoint" />
            <Array as="points">
              <mxPoint x="1730" y="220" />
              <mxPoint x="1600" y="220" />
            </Array>
          </mxGeometry>
        </mxCell>
        <mxCell id="aqoGc1DX-6544hBjVU6M-52" value="" style="endArrow=none;html=1;exitX=0.5;exitY=0;exitDx=0;exitDy=0;" parent="1" source="aqoGc1DX-6544hBjVU6M-27" edge="1">
          <mxGeometry width="50" height="50" relative="1" as="geometry">
            <mxPoint x="1040" y="910" as="sourcePoint" />
            <mxPoint x="1600" y="210" as="targetPoint" />
          </mxGeometry>
        </mxCell>
        <mxCell id="aqoGc1DX-6544hBjVU6M-53" value="" style="endArrow=none;html=1;exitX=0.5;exitY=0;exitDx=0;exitDy=0;" parent="1" source="aqoGc1DX-6544hBjVU6M-25" edge="1">
          <mxGeometry width="50" height="50" relative="1" as="geometry">
            <mxPoint x="1040" y="980" as="sourcePoint" />
            <mxPoint x="1600" y="210" as="targetPoint" />
            <Array as="points">
              <mxPoint x="1470" y="220" />
              <mxPoint x="1600" y="220" />
            </Array>
          </mxGeometry>
        </mxCell>
        <mxCell id="aqoGc1DX-6544hBjVU6M-58" value="&lt;div&gt;&lt;font face=&quot;Courier New&quot;&gt;2.2.1) &lt;br&gt;&lt;/font&gt;&lt;/div&gt;&lt;div&gt;&lt;font face=&quot;Courier New&quot;&gt;Design interfaccia PC&lt;/font&gt;&lt;/div&gt;" style="rounded=1;whiteSpace=wrap;html=1;" parent="1" vertex="1">
          <mxGeometry x="720" y="320" width="120" height="50" as="geometry" />
        </mxCell>
        <mxCell id="aqoGc1DX-6544hBjVU6M-59" value="&lt;div&gt;&lt;font face=&quot;Courier New&quot;&gt;2.2.2) &lt;br&gt;&lt;/font&gt;&lt;/div&gt;&lt;div&gt;&lt;font face=&quot;Courier New&quot;&gt;Design interfaccia dispositivi mobili&lt;/font&gt;&lt;/div&gt;" style="rounded=1;whiteSpace=wrap;html=1;" parent="1" vertex="1">
          <mxGeometry x="720" y="380" width="120" height="80" as="geometry" />
        </mxCell>
        <mxCell id="aqoGc1DX-6544hBjVU6M-60" value="&lt;div&gt;&lt;font face=&quot;Courier New&quot;&gt;2.1.1) &lt;br&gt;&lt;/font&gt;&lt;/div&gt;&lt;div&gt;&lt;font face=&quot;Courier New&quot;&gt;Design Schermata di Accesso&lt;br&gt;&lt;/font&gt;&lt;/div&gt;" style="rounded=1;whiteSpace=wrap;html=1;" parent="1" vertex="1">
          <mxGeometry x="595" y="320" width="110" height="60" as="geometry" />
        </mxCell>
        <mxCell id="aqoGc1DX-6544hBjVU6M-61" value="&lt;div&gt;&lt;font face=&quot;Courier New&quot;&gt;2.1.2) &lt;br&gt;&lt;/font&gt;&lt;/div&gt;&lt;div&gt;&lt;font face=&quot;Courier New&quot;&gt;Design Schermata principale&lt;/font&gt;&lt;/div&gt;" style="rounded=1;whiteSpace=wrap;html=1;" parent="1" vertex="1">
          <mxGeometry x="595" y="390" width="110" height="60" as="geometry" />
        </mxCell>
        <mxCell id="aqoGc1DX-6544hBjVU6M-62" value="&lt;div&gt;&lt;font face=&quot;Courier New&quot;&gt;2.1.3) &lt;br&gt;&lt;/font&gt;&lt;/div&gt;&lt;div&gt;&lt;font face=&quot;Courier New&quot;&gt;Design schermate secondarie&lt;/font&gt;&lt;/div&gt;" style="rounded=1;whiteSpace=wrap;html=1;" parent="1" vertex="1">
          <mxGeometry x="595" y="460" width="110" height="60" as="geometry" />
        </mxCell>
        <mxCell id="aqoGc1DX-6544hBjVU6M-64" value="" style="endArrow=none;html=1;entryX=0.5;entryY=1;entryDx=0;entryDy=0;exitX=0.5;exitY=0;exitDx=0;exitDy=0;" parent="1" source="aqoGc1DX-6544hBjVU6M-61" target="aqoGc1DX-6544hBjVU6M-60" edge="1">
          <mxGeometry width="50" height="50" relative="1" as="geometry">
            <mxPoint x="395" y="700" as="sourcePoint" />
            <mxPoint x="650" y="389.9999999999999" as="targetPoint" />
          </mxGeometry>
        </mxCell>
        <mxCell id="aqoGc1DX-6544hBjVU6M-65" value="" style="endArrow=none;html=1;entryX=0.5;entryY=1;entryDx=0;entryDy=0;exitX=0.5;exitY=0;exitDx=0;exitDy=0;" parent="1" source="aqoGc1DX-6544hBjVU6M-62" target="aqoGc1DX-6544hBjVU6M-61" edge="1">
          <mxGeometry width="50" height="50" relative="1" as="geometry">
            <mxPoint x="395" y="770" as="sourcePoint" />
            <mxPoint x="445" y="720" as="targetPoint" />
          </mxGeometry>
        </mxCell>
        <mxCell id="aqoGc1DX-6544hBjVU6M-66" value="" style="endArrow=none;html=1;exitX=0.5;exitY=0;exitDx=0;exitDy=0;" parent="1" source="aqoGc1DX-6544hBjVU6M-58" edge="1">
          <mxGeometry width="50" height="50" relative="1" as="geometry">
            <mxPoint x="380" y="830" as="sourcePoint" />
            <mxPoint x="720" y="300" as="targetPoint" />
            <Array as="points">
              <mxPoint x="780" y="310" />
              <mxPoint x="720" y="310" />
            </Array>
          </mxGeometry>
        </mxCell>
        <mxCell id="aqoGc1DX-6544hBjVU6M-67" value="" style="endArrow=none;html=1;" parent="1" edge="1">
          <mxGeometry width="50" height="50" relative="1" as="geometry">
            <mxPoint x="780" y="380" as="sourcePoint" />
            <mxPoint x="779.86" y="370" as="targetPoint" />
          </mxGeometry>
        </mxCell>
        <mxCell id="X_dABTb3c912ryczUAv1-3" value="&lt;font face=&quot;Courier New&quot;&gt;3.2.1) Progettazione DataBase&lt;/font&gt;" style="rounded=1;whiteSpace=wrap;html=1;" parent="1" vertex="1">
          <mxGeometry x="1140" y="320" width="100" height="50" as="geometry" />
        </mxCell>
        <mxCell id="X_dABTb3c912ryczUAv1-7" value="" style="endArrow=none;html=1;entryX=0.5;entryY=1;entryDx=0;entryDy=0;" parent="1" target="aqoGc1DX-6544hBjVU6M-33" edge="1">
          <mxGeometry width="50" height="50" relative="1" as="geometry">
            <mxPoint x="1190" y="320" as="sourcePoint" />
            <mxPoint x="1100" y="330" as="targetPoint" />
            <Array as="points">
              <mxPoint x="1190" y="310" />
              <mxPoint x="1150" y="310" />
            </Array>
          </mxGeometry>
        </mxCell>
        <mxCell id="X_dABTb3c912ryczUAv1-8" value="&lt;font face=&quot;Courier New&quot;&gt;3.2.1.1) Progettazione Concettuale&lt;/font&gt;" style="rounded=1;whiteSpace=wrap;html=1;" parent="1" vertex="1">
          <mxGeometry x="1185" y="390" width="105" height="50" as="geometry" />
        </mxCell>
        <mxCell id="X_dABTb3c912ryczUAv1-9" value="" style="endArrow=none;html=1;exitX=0.526;exitY=0.008;exitDx=0;exitDy=0;exitPerimeter=0;" parent="1" source="X_dABTb3c912ryczUAv1-8" edge="1">
          <mxGeometry width="50" height="50" relative="1" as="geometry">
            <mxPoint x="1140" y="420" as="sourcePoint" />
            <mxPoint x="1190" y="370" as="targetPoint" />
            <Array as="points">
              <mxPoint x="1235" y="380" />
              <mxPoint x="1190" y="380" />
            </Array>
          </mxGeometry>
        </mxCell>
        <mxCell id="X_dABTb3c912ryczUAv1-10" value="&lt;div&gt;&lt;font face=&quot;Courier New&quot;&gt;3.2.1.2) Progettazione Logica&lt;/font&gt;&lt;/div&gt;" style="rounded=1;whiteSpace=wrap;html=1;" parent="1" vertex="1">
          <mxGeometry x="1185" y="450" width="105" height="50" as="geometry" />
        </mxCell>
        <mxCell id="X_dABTb3c912ryczUAv1-11" value="&lt;div&gt;&lt;font face=&quot;Courier New&quot;&gt;3.2.1.3) Progettazione Fisica&lt;/font&gt;&lt;/div&gt;" style="rounded=1;whiteSpace=wrap;html=1;" parent="1" vertex="1">
          <mxGeometry x="1185" y="510" width="105" height="50" as="geometry" />
        </mxCell>
        <mxCell id="X_dABTb3c912ryczUAv1-12" value="" style="endArrow=none;html=1;exitX=0.5;exitY=0;exitDx=0;exitDy=0;" parent="1" source="X_dABTb3c912ryczUAv1-10" target="X_dABTb3c912ryczUAv1-8" edge="1">
          <mxGeometry width="50" height="50" relative="1" as="geometry">
            <mxPoint x="1234" y="450" as="sourcePoint" />
            <mxPoint x="1234" y="440" as="targetPoint" />
          </mxGeometry>
        </mxCell>
        <mxCell id="X_dABTb3c912ryczUAv1-14" value="" style="endArrow=none;html=1;entryX=0.5;entryY=1;entryDx=0;entryDy=0;exitX=0.5;exitY=0;exitDx=0;exitDy=0;" parent="1" source="X_dABTb3c912ryczUAv1-11" target="X_dABTb3c912ryczUAv1-10" edge="1">
          <mxGeometry width="50" height="50" relative="1" as="geometry">
            <mxPoint x="1170" y="530" as="sourcePoint" />
            <mxPoint x="1220" y="480" as="targetPoint" />
          </mxGeometry>
        </mxCell>
        <mxCell id="X_dABTb3c912ryczUAv1-16" value="&lt;font face=&quot;Courier New&quot;&gt;3.2.2) &lt;br&gt;Creazione pagine PHP&lt;br&gt;&lt;/font&gt;" style="rounded=1;whiteSpace=wrap;html=1;" parent="1" vertex="1">
          <mxGeometry x="1140" y="570" width="100" height="50" as="geometry" />
        </mxCell>
        <mxCell id="X_dABTb3c912ryczUAv1-23" value="&lt;div&gt;&lt;font face=&quot;Courier New&quot;&gt;3.2.2.1)&lt;/font&gt;&lt;/div&gt;&lt;div&gt;&lt;font face=&quot;Courier New&quot;&gt;Creazione funzioni PHP&lt;br&gt;&lt;/font&gt;&lt;/div&gt;" style="rounded=1;whiteSpace=wrap;html=1;" parent="1" vertex="1">
          <mxGeometry x="1185" y="640" width="100" height="50" as="geometry" />
        </mxCell>
        <mxCell id="X_dABTb3c912ryczUAv1-27" value="" style="endArrow=none;html=1;entryX=0.25;entryY=1;entryDx=0;entryDy=0;exitX=0.25;exitY=0;exitDx=0;exitDy=0;" parent="1" source="X_dABTb3c912ryczUAv1-16" target="X_dABTb3c912ryczUAv1-3" edge="1">
          <mxGeometry width="50" height="50" relative="1" as="geometry">
            <mxPoint x="1100" y="480" as="sourcePoint" />
            <mxPoint x="1150" y="430" as="targetPoint" />
          </mxGeometry>
        </mxCell>
        <mxCell id="mJpeuhX-jYpMLtr7Yf6K-1" value="&lt;font face=&quot;Courier New&quot;&gt;3.2.1) Creazione pagine&lt;br&gt;&lt;/font&gt;" style="rounded=1;whiteSpace=wrap;html=1;" parent="1" vertex="1">
          <mxGeometry x="1280" y="320" width="100" height="50" as="geometry" />
        </mxCell>
        <mxCell id="mJpeuhX-jYpMLtr7Yf6K-3" value="&lt;font face=&quot;Courier New&quot;&gt;3.2.1.1) Sezione HTML&lt;br&gt;&lt;/font&gt;" style="rounded=1;whiteSpace=wrap;html=1;" parent="1" vertex="1">
          <mxGeometry x="1325" y="390" width="105" height="50" as="geometry" />
        </mxCell>
        <mxCell id="mJpeuhX-jYpMLtr7Yf6K-4" value="" style="endArrow=none;html=1;exitX=0.5;exitY=0;exitDx=0;exitDy=0;" parent="1" source="mJpeuhX-jYpMLtr7Yf6K-3" edge="1">
          <mxGeometry width="50" height="50" relative="1" as="geometry">
            <mxPoint x="1280" y="420" as="sourcePoint" />
            <mxPoint x="1329.9999999999995" y="370" as="targetPoint" />
            <Array as="points">
              <mxPoint x="1375" y="380" />
              <mxPoint x="1330" y="380" />
            </Array>
          </mxGeometry>
        </mxCell>
        <mxCell id="mJpeuhX-jYpMLtr7Yf6K-5" value="&lt;div&gt;&lt;font face=&quot;Courier New&quot;&gt;3.2.1.2) Sezione CSS&lt;br&gt;&lt;/font&gt;&lt;/div&gt;" style="rounded=1;whiteSpace=wrap;html=1;" parent="1" vertex="1">
          <mxGeometry x="1325" y="450" width="105" height="50" as="geometry" />
        </mxCell>
        <mxCell id="mJpeuhX-jYpMLtr7Yf6K-7" value="" style="endArrow=none;html=1;entryX=0.5;entryY=1;entryDx=0;entryDy=0;exitX=0.5;exitY=0;exitDx=0;exitDy=0;" parent="1" source="mJpeuhX-jYpMLtr7Yf6K-5" target="mJpeuhX-jYpMLtr7Yf6K-3" edge="1">
          <mxGeometry width="50" height="50" relative="1" as="geometry">
            <mxPoint x="1360" y="490" as="sourcePoint" />
            <mxPoint x="1410" y="440" as="targetPoint" />
          </mxGeometry>
        </mxCell>
        <mxCell id="mJpeuhX-jYpMLtr7Yf6K-16" value="" style="endArrow=none;html=1;exitX=0.5;exitY=0;exitDx=0;exitDy=0;entryX=0.5;entryY=1;entryDx=0;entryDy=0;" parent="1" source="X_dABTb3c912ryczUAv1-23" target="X_dABTb3c912ryczUAv1-16" edge="1">
          <mxGeometry width="50" height="50" relative="1" as="geometry">
            <mxPoint x="1250" y="650" as="sourcePoint" />
            <mxPoint x="1300" y="600" as="targetPoint" />
            <Array as="points">
              <mxPoint x="1235" y="630" />
              <mxPoint x="1190" y="630" />
            </Array>
          </mxGeometry>
        </mxCell>
        <mxCell id="mJpeuhX-jYpMLtr7Yf6K-19" value="&lt;div&gt;&lt;font face=&quot;Courier New&quot;&gt;4.3.1) &lt;br&gt;&lt;/font&gt;&lt;/div&gt;&lt;div&gt;&lt;font face=&quot;Courier New&quot;&gt;Training Insegnanti&lt;/font&gt;&lt;/div&gt;" style="rounded=1;whiteSpace=wrap;html=1;" parent="1" vertex="1">
          <mxGeometry x="2160" y="320" width="120" height="50" as="geometry" />
        </mxCell>
        <mxCell id="mJpeuhX-jYpMLtr7Yf6K-20" value="&lt;div&gt;&lt;font face=&quot;Courier New&quot;&gt;4.3.2) &lt;br&gt;&lt;/font&gt;&lt;/div&gt;&lt;div&gt;&lt;font face=&quot;Courier New&quot;&gt;Training &lt;br&gt;&lt;/font&gt;&lt;/div&gt;&lt;div&gt;&lt;font face=&quot;Courier New&quot;&gt;Assistenti&lt;/font&gt;&lt;/div&gt;" style="rounded=1;whiteSpace=wrap;html=1;" parent="1" vertex="1">
          <mxGeometry x="2160" y="380" width="120" height="50" as="geometry" />
        </mxCell>
        <mxCell id="mJpeuhX-jYpMLtr7Yf6K-21" value="&lt;div&gt;&lt;font face=&quot;Courier New&quot;&gt;4.3.3) &lt;br&gt;&lt;/font&gt;&lt;/div&gt;&lt;div&gt;&lt;font face=&quot;Courier New&quot;&gt;Training Studenti&lt;/font&gt;&lt;/div&gt;" style="rounded=1;whiteSpace=wrap;html=1;" parent="1" vertex="1">
          <mxGeometry x="2160" y="440" width="120" height="50" as="geometry" />
        </mxCell>
        <mxCell id="mJpeuhX-jYpMLtr7Yf6K-22" value="" style="endArrow=none;html=1;exitX=0.5;exitY=0;exitDx=0;exitDy=0;" parent="1" source="mJpeuhX-jYpMLtr7Yf6K-21" edge="1">
          <mxGeometry width="50" height="50" relative="1" as="geometry">
            <mxPoint x="2170" y="480" as="sourcePoint" />
            <mxPoint x="2220" y="430" as="targetPoint" />
          </mxGeometry>
        </mxCell>
        <mxCell id="mJpeuhX-jYpMLtr7Yf6K-23" value="" style="endArrow=none;html=1;exitX=0.5;exitY=0;exitDx=0;exitDy=0;" parent="1" edge="1">
          <mxGeometry width="50" height="50" relative="1" as="geometry">
            <mxPoint x="2219.88" y="380" as="sourcePoint" />
            <mxPoint x="2219.88" y="370" as="targetPoint" />
            <Array as="points">
              <mxPoint x="2219.88" y="370" />
            </Array>
          </mxGeometry>
        </mxCell>
        <mxCell id="mJpeuhX-jYpMLtr7Yf6K-25" value="&lt;div&gt;3.3.1) &lt;br&gt;&lt;/div&gt;&lt;div&gt;Correzione bug&lt;/div&gt;" style="rounded=1;whiteSpace=wrap;html=1;" parent="1" vertex="1">
          <mxGeometry x="1710" y="330" width="120" height="50" as="geometry" />
        </mxCell>
        <mxCell id="mJpeuhX-jYpMLtr7Yf6K-32" value="" style="endArrow=none;html=1;entryX=0.5;entryY=1;entryDx=0;entryDy=0;exitX=0.5;exitY=0;exitDx=0;exitDy=0;" parent="1" source="uwCQygGZfcRBNVv9s5Vt-27" target="uwCQygGZfcRBNVv9s5Vt-25" edge="1">
          <mxGeometry width="50" height="50" relative="1" as="geometry">
            <mxPoint x="20" y="350" as="sourcePoint" />
            <mxPoint x="70" y="300" as="targetPoint" />
            <Array as="points">
              <mxPoint x="110" y="310" />
              <mxPoint x="50" y="310" />
            </Array>
          </mxGeometry>
        </mxCell>
        <mxCell id="mJpeuhX-jYpMLtr7Yf6K-34" value="" style="endArrow=none;html=1;entryX=0.5;entryY=1;entryDx=0;entryDy=0;exitX=0.5;exitY=0;exitDx=0;exitDy=0;" parent="1" edge="1">
          <mxGeometry width="50" height="50" relative="1" as="geometry">
            <mxPoint x="280" y="320" as="sourcePoint" />
            <mxPoint x="220" y="300" as="targetPoint" />
            <Array as="points">
              <mxPoint x="280" y="310" />
              <mxPoint x="220" y="310" />
            </Array>
          </mxGeometry>
        </mxCell>
        <mxCell id="mJpeuhX-jYpMLtr7Yf6K-35" value="" style="endArrow=none;html=1;entryX=0.5;entryY=1;entryDx=0;entryDy=0;exitX=0.5;exitY=0;exitDx=0;exitDy=0;" parent="1" edge="1">
          <mxGeometry width="50" height="50" relative="1" as="geometry">
            <mxPoint x="450" y="320" as="sourcePoint" />
            <mxPoint x="390" y="300" as="targetPoint" />
            <Array as="points">
              <mxPoint x="450" y="310" />
              <mxPoint x="390" y="310" />
            </Array>
          </mxGeometry>
        </mxCell>
        <mxCell id="mJpeuhX-jYpMLtr7Yf6K-36" value="" style="endArrow=none;html=1;entryX=0.5;entryY=1;entryDx=0;entryDy=0;" parent="1" edge="1">
          <mxGeometry width="50" height="50" relative="1" as="geometry">
            <mxPoint x="1330" y="320" as="sourcePoint" />
            <mxPoint x="1290" y="300" as="targetPoint" />
            <Array as="points">
              <mxPoint x="1330" y="310" />
              <mxPoint x="1290" y="310" />
            </Array>
          </mxGeometry>
        </mxCell>
        <mxCell id="mJpeuhX-jYpMLtr7Yf6K-37" value="" style="endArrow=none;html=1;entryX=0.5;entryY=1;entryDx=0;entryDy=0;" parent="1" edge="1">
          <mxGeometry width="50" height="50" relative="1" as="geometry">
            <mxPoint x="1770" y="330" as="sourcePoint" />
            <mxPoint x="1730" y="310" as="targetPoint" />
            <Array as="points">
              <mxPoint x="1770" y="320" />
              <mxPoint x="1730" y="320" />
            </Array>
          </mxGeometry>
        </mxCell>
        <mxCell id="mJpeuhX-jYpMLtr7Yf6K-38" value="" style="endArrow=none;html=1;entryX=0.5;entryY=1;entryDx=0;entryDy=0;" parent="1" edge="1">
          <mxGeometry width="50" height="50" relative="1" as="geometry">
            <mxPoint x="2220" y="319.9999999999999" as="sourcePoint" />
            <mxPoint x="2180" y="299.9999999999999" as="targetPoint" />
            <Array as="points">
              <mxPoint x="2220" y="310" />
              <mxPoint x="2180" y="310" />
            </Array>
          </mxGeometry>
        </mxCell>
        <mxCell id="mJpeuhX-jYpMLtr7Yf6K-40" value="" style="endArrow=none;html=1;exitX=0.5;exitY=0;exitDx=0;exitDy=0;" parent="1" edge="1">
          <mxGeometry width="50" height="50" relative="1" as="geometry">
            <mxPoint x="650" y="320" as="sourcePoint" />
            <mxPoint x="590" y="300" as="targetPoint" />
            <Array as="points">
              <mxPoint x="650" y="310" />
              <mxPoint x="590" y="310" />
            </Array>
          </mxGeometry>
        </mxCell>
      </root>
    </mxGraphModel>
  </diagram>
</mxfile>
